<mxfile host="app.diagrams.net" modified="2022-11-08T08:10:05.553Z" agent="5.0 (Macintosh; Intel Mac OS X 10_15_7) AppleWebKit/537.36 (KHTML, like Gecko) Chrome/107.0.0.0 Safari/537.36" etag="Nn4yPEvqR1l3994rCwTo" version="20.5.3" type="github">
  <diagram id="J08z-moq-4YXgrF1eUB3" name="第 1 页">
    <mxGraphModel dx="1882" dy="1962" grid="1" gridSize="10" guides="1" tooltips="1" connect="1" arrows="1" fold="1" page="1" pageScale="1" pageWidth="827" pageHeight="1169" math="0" shadow="0">
      <root>
        <mxCell id="0" />
        <mxCell id="1" parent="0" />
        <mxCell id="OIUGpZVn9Aiv7QThtbN1-1" value="" style="rounded=1;whiteSpace=wrap;html=1;absoluteArcSize=1;arcSize=14;strokeWidth=2;" parent="1" vertex="1">
          <mxGeometry x="330" y="310" width="337" height="110" as="geometry" />
        </mxCell>
        <mxCell id="bJTVgxnDyHc0i6QxKm_M-24" value="" style="rounded=1;whiteSpace=wrap;html=1;fillColor=#dae8fc;strokeColor=#6c8ebf;strokeWidth=3;" parent="1" vertex="1">
          <mxGeometry x="200" y="130" width="490" height="140" as="geometry" />
        </mxCell>
        <mxCell id="bJTVgxnDyHc0i6QxKm_M-31" value="" style="whiteSpace=wrap;html=1;" parent="1" vertex="1">
          <mxGeometry x="405" y="145" width="265" height="115" as="geometry" />
        </mxCell>
        <mxCell id="bJTVgxnDyHc0i6QxKm_M-1" value="&lt;span style=&quot;&quot;&gt;SeaBankAppMain&lt;/span&gt;" style="rounded=1;whiteSpace=wrap;html=1;absoluteArcSize=1;arcSize=14;strokeWidth=2;" parent="1" vertex="1">
          <mxGeometry x="40" y="-50" width="120" height="320" as="geometry" />
        </mxCell>
        <mxCell id="bJTVgxnDyHc0i6QxKm_M-2" value="" style="rounded=1;whiteSpace=wrap;html=1;absoluteArcSize=1;arcSize=14;strokeWidth=2;" parent="1" vertex="1">
          <mxGeometry x="210" y="-60" width="180" height="190" as="geometry" />
        </mxCell>
        <mxCell id="bJTVgxnDyHc0i6QxKm_M-3" value="RN Bundle" style="text;html=1;align=center;verticalAlign=middle;resizable=0;points=[];autosize=1;strokeColor=none;fillColor=none;" parent="1" vertex="1">
          <mxGeometry x="210" y="-60" width="80" height="30" as="geometry" />
        </mxCell>
        <mxCell id="bJTVgxnDyHc0i6QxKm_M-5" value="" style="rounded=1;whiteSpace=wrap;html=1;absoluteArcSize=1;arcSize=14;strokeWidth=2;" parent="1" vertex="1">
          <mxGeometry x="400" y="-60" width="180" height="190" as="geometry" />
        </mxCell>
        <mxCell id="bJTVgxnDyHc0i6QxKm_M-6" value="RN Bundle" style="text;html=1;align=center;verticalAlign=middle;resizable=0;points=[];autosize=1;strokeColor=none;fillColor=none;" parent="1" vertex="1">
          <mxGeometry x="405" y="-60" width="80" height="30" as="geometry" />
        </mxCell>
        <mxCell id="bJTVgxnDyHc0i6QxKm_M-7" value="" style="rounded=1;whiteSpace=wrap;html=1;absoluteArcSize=1;arcSize=14;strokeWidth=2;" parent="1" vertex="1">
          <mxGeometry x="593" y="-60" width="97" height="190" as="geometry" />
        </mxCell>
        <mxCell id="bJTVgxnDyHc0i6QxKm_M-8" value="RN Bundle" style="text;html=1;align=center;verticalAlign=middle;resizable=0;points=[];autosize=1;strokeColor=none;fillColor=none;" parent="1" vertex="1">
          <mxGeometry x="601.5" y="-60" width="80" height="30" as="geometry" />
        </mxCell>
        <mxCell id="bJTVgxnDyHc0i6QxKm_M-9" value="" style="rounded=1;whiteSpace=wrap;html=1;absoluteArcSize=1;arcSize=14;strokeWidth=2;" parent="1" vertex="1">
          <mxGeometry x="215" y="-30" width="170" height="150" as="geometry" />
        </mxCell>
        <mxCell id="bJTVgxnDyHc0i6QxKm_M-11" value="" style="rounded=1;whiteSpace=wrap;html=1;absoluteArcSize=1;arcSize=14;strokeWidth=2;" parent="1" vertex="1">
          <mxGeometry x="405" y="-30" width="165" height="150" as="geometry" />
        </mxCell>
        <mxCell id="bJTVgxnDyHc0i6QxKm_M-12" value="&lt;span style=&quot;&quot;&gt;ekyc&lt;/span&gt;" style="rounded=1;whiteSpace=wrap;html=1;absoluteArcSize=1;arcSize=14;strokeWidth=2;" parent="1" vertex="1">
          <mxGeometry x="606.5" y="-15" width="70" height="30" as="geometry" />
        </mxCell>
        <mxCell id="bJTVgxnDyHc0i6QxKm_M-14" value="Business Layout" style="text;html=1;align=center;verticalAlign=middle;resizable=0;points=[];autosize=1;strokeColor=none;fillColor=none;" parent="1" vertex="1">
          <mxGeometry x="-110" y="150" width="110" height="30" as="geometry" />
        </mxCell>
        <mxCell id="bJTVgxnDyHc0i6QxKm_M-15" value="Native service" style="rounded=1;whiteSpace=wrap;html=1;absoluteArcSize=1;arcSize=14;strokeWidth=2;" parent="1" vertex="1">
          <mxGeometry x="50" y="310" width="110" height="110" as="geometry" />
        </mxCell>
        <mxCell id="bJTVgxnDyHc0i6QxKm_M-16" value="RN service" style="rounded=1;whiteSpace=wrap;html=1;absoluteArcSize=1;arcSize=14;strokeWidth=2;" parent="1" vertex="1">
          <mxGeometry x="210" y="310" width="100" height="110" as="geometry" />
        </mxCell>
        <mxCell id="bJTVgxnDyHc0i6QxKm_M-18" value="" style="rounded=1;whiteSpace=wrap;html=1;absoluteArcSize=1;arcSize=14;strokeWidth=2;fillColor=#dae8fc;strokeColor=#6c8ebf;" parent="1" vertex="1">
          <mxGeometry x="45" y="470" width="610" height="100" as="geometry" />
        </mxCell>
        <mxCell id="bJTVgxnDyHc0i6QxKm_M-19" value="Service Layout" style="text;html=1;align=center;verticalAlign=middle;resizable=0;points=[];autosize=1;strokeColor=none;fillColor=none;" parent="1" vertex="1">
          <mxGeometry x="-105" y="325" width="100" height="30" as="geometry" />
        </mxCell>
        <mxCell id="bJTVgxnDyHc0i6QxKm_M-20" value="Basic Layout" style="text;html=1;align=center;verticalAlign=middle;resizable=0;points=[];autosize=1;strokeColor=none;fillColor=none;" parent="1" vertex="1">
          <mxGeometry x="-105" y="485" width="90" height="30" as="geometry" />
        </mxCell>
        <mxCell id="bJTVgxnDyHc0i6QxKm_M-21" value="" style="endArrow=none;dashed=1;html=1;rounded=0;" parent="1" edge="1">
          <mxGeometry width="50" height="50" relative="1" as="geometry">
            <mxPoint x="190" y="430" as="sourcePoint" />
            <mxPoint x="190" y="-50" as="targetPoint" />
          </mxGeometry>
        </mxCell>
        <mxCell id="bJTVgxnDyHc0i6QxKm_M-22" value="" style="endArrow=none;dashed=1;html=1;rounded=0;" parent="1" edge="1">
          <mxGeometry width="50" height="50" relative="1" as="geometry">
            <mxPoint x="50" y="280" as="sourcePoint" />
            <mxPoint x="680" y="280" as="targetPoint" />
          </mxGeometry>
        </mxCell>
        <mxCell id="bJTVgxnDyHc0i6QxKm_M-23" value="" style="endArrow=none;dashed=1;html=1;rounded=0;" parent="1" edge="1">
          <mxGeometry width="50" height="50" relative="1" as="geometry">
            <mxPoint x="45" y="440" as="sourcePoint" />
            <mxPoint x="675" y="440" as="targetPoint" />
          </mxGeometry>
        </mxCell>
        <mxCell id="bJTVgxnDyHc0i6QxKm_M-25" value="shared" style="text;html=1;align=center;verticalAlign=middle;resizable=0;points=[];autosize=1;strokeColor=none;fillColor=none;" parent="1" vertex="1">
          <mxGeometry x="232.5" y="140" width="60" height="30" as="geometry" />
        </mxCell>
        <mxCell id="bJTVgxnDyHc0i6QxKm_M-29" value="PINView" style="rounded=1;whiteSpace=wrap;html=1;fillColor=#f8cecc;strokeColor=#b85450;" parent="1" vertex="1">
          <mxGeometry x="415" y="170" width="75" height="35" as="geometry" />
        </mxCell>
        <mxCell id="bJTVgxnDyHc0i6QxKm_M-30" value="OTPView" style="rounded=1;whiteSpace=wrap;html=1;fillColor=#f8cecc;strokeColor=#b85450;" parent="1" vertex="1">
          <mxGeometry x="505" y="170" width="75" height="35" as="geometry" />
        </mxCell>
        <mxCell id="bJTVgxnDyHc0i6QxKm_M-32" value="&lt;meta charset=&quot;utf-8&quot;&gt;&lt;span style=&quot;color: rgb(0, 0, 0); font-family: Helvetica; font-size: 12px; font-style: normal; font-variant-ligatures: normal; font-variant-caps: normal; font-weight: 400; letter-spacing: normal; orphans: 2; text-align: center; text-indent: 0px; text-transform: none; widows: 2; word-spacing: 0px; -webkit-text-stroke-width: 0px; background-color: rgb(248, 249, 250); text-decoration-thickness: initial; text-decoration-style: initial; text-decoration-color: initial; float: none; display: inline !important;&quot;&gt;components&lt;/span&gt;" style="text;whiteSpace=wrap;html=1;" parent="1" vertex="1">
          <mxGeometry x="410" y="145" width="100" height="40" as="geometry" />
        </mxCell>
        <mxCell id="bJTVgxnDyHc0i6QxKm_M-33" value="PWDView" style="rounded=1;whiteSpace=wrap;html=1;fillColor=#f8cecc;strokeColor=#b85450;" parent="1" vertex="1">
          <mxGeometry x="417.5" y="215" width="75" height="35" as="geometry" />
        </mxCell>
        <mxCell id="bJTVgxnDyHc0i6QxKm_M-37" value="Create PWDView" style="rounded=1;whiteSpace=wrap;html=1;fillColor=#f8cecc;strokeColor=#b85450;" parent="1" vertex="1">
          <mxGeometry x="506" y="215" width="75" height="35" as="geometry" />
        </mxCell>
        <mxCell id="bJTVgxnDyHc0i6QxKm_M-38" value="SDBOTPVerifyView" style="rounded=1;whiteSpace=wrap;html=1;strokeWidth=3;fillColor=#f8cecc;strokeColor=#b85450;" parent="1" vertex="1">
          <mxGeometry x="325" y="485" width="150" height="30" as="geometry" />
        </mxCell>
        <mxCell id="bJTVgxnDyHc0i6QxKm_M-40" value="SDBPasswordVerifyView" style="rounded=1;whiteSpace=wrap;html=1;strokeWidth=3;fillColor=#f8cecc;strokeColor=#b85450;" parent="1" vertex="1">
          <mxGeometry x="495" y="485" width="150" height="30" as="geometry" />
        </mxCell>
        <mxCell id="bJTVgxnDyHc0i6QxKm_M-41" value="SDBPasswordCreateView" style="rounded=1;whiteSpace=wrap;html=1;strokeWidth=3;fillColor=#f8cecc;strokeColor=#b85450;" parent="1" vertex="1">
          <mxGeometry x="325" y="530" width="150" height="30" as="geometry" />
        </mxCell>
        <mxCell id="bJTVgxnDyHc0i6QxKm_M-42" value="SDBPINVerifyView" style="rounded=1;whiteSpace=wrap;html=1;strokeWidth=3;fillColor=#f8cecc;strokeColor=#b85450;" parent="1" vertex="1">
          <mxGeometry x="495" y="530" width="150" height="30" as="geometry" />
        </mxCell>
        <mxCell id="bJTVgxnDyHc0i6QxKm_M-43" value="&lt;span style=&quot;&quot;&gt;SDK&lt;/span&gt;" style="text;html=1;align=center;verticalAlign=middle;resizable=0;points=[];autosize=1;strokeColor=none;fillColor=none;" parent="1" vertex="1">
          <mxGeometry x="45" y="470" width="50" height="30" as="geometry" />
        </mxCell>
        <mxCell id="bJTVgxnDyHc0i6QxKm_M-44" value="SoftToken" style="whiteSpace=wrap;html=1;strokeWidth=3;fillColor=#ffe6cc;strokeColor=#d79b00;" parent="1" vertex="1">
          <mxGeometry x="195" y="485" width="100" height="30" as="geometry" />
        </mxCell>
        <mxCell id="bJTVgxnDyHc0i6QxKm_M-45" value="Encryptor" style="whiteSpace=wrap;html=1;strokeWidth=3;fillColor=#ffe6cc;strokeColor=#d79b00;" parent="1" vertex="1">
          <mxGeometry x="195" y="530" width="100" height="30" as="geometry" />
        </mxCell>
        <mxCell id="6WeLOK3SUc9M_mdKDQzH-1" value="&lt;span style=&quot;&quot;&gt;account&lt;/span&gt;" style="text;html=1;align=center;verticalAlign=middle;resizable=0;points=[];autosize=1;strokeColor=none;fillColor=none;" parent="1" vertex="1">
          <mxGeometry x="210" y="-18.5" width="70" height="30" as="geometry" />
        </mxCell>
        <mxCell id="6WeLOK3SUc9M_mdKDQzH-2" value="LoginVerify" style="rounded=1;whiteSpace=wrap;html=1;fillColor=#e1d5e7;strokeColor=#9673a6;" parent="1" vertex="1">
          <mxGeometry x="225" y="11.5" width="75" height="35" as="geometry" />
        </mxCell>
        <mxCell id="6WeLOK3SUc9M_mdKDQzH-4" value="SignUpVerify" style="rounded=1;whiteSpace=wrap;html=1;fillColor=#e1d5e7;strokeColor=#9673a6;" parent="1" vertex="1">
          <mxGeometry x="306" y="11.5" width="75" height="35" as="geometry" />
        </mxCell>
        <mxCell id="OIUGpZVn9Aiv7QThtbN1-2" value="&lt;span style=&quot;&quot;&gt;RN Template&lt;/span&gt;" style="text;html=1;align=center;verticalAlign=middle;resizable=0;points=[];autosize=1;strokeColor=none;fillColor=none;" parent="1" vertex="1">
          <mxGeometry x="327.5" y="310" width="90" height="30" as="geometry" />
        </mxCell>
        <mxCell id="OIUGpZVn9Aiv7QThtbN1-3" value="" style="group" parent="1" vertex="1" connectable="0">
          <mxGeometry x="361" y="340" width="105" height="70" as="geometry" />
        </mxCell>
        <mxCell id="bJTVgxnDyHc0i6QxKm_M-34" value="" style="whiteSpace=wrap;html=1;" parent="OIUGpZVn9Aiv7QThtbN1-3" vertex="1">
          <mxGeometry x="10" width="95" height="70" as="geometry" />
        </mxCell>
        <mxCell id="bJTVgxnDyHc0i6QxKm_M-35" value="&lt;span style=&quot;&quot;&gt;hook&lt;/span&gt;" style="text;html=1;align=center;verticalAlign=middle;resizable=0;points=[];autosize=1;strokeColor=none;fillColor=none;" parent="OIUGpZVn9Aiv7QThtbN1-3" vertex="1">
          <mxGeometry width="50" height="30" as="geometry" />
        </mxCell>
        <mxCell id="bJTVgxnDyHc0i6QxKm_M-36" value="useVerify" style="rounded=1;whiteSpace=wrap;html=1;fillColor=#fff2cc;strokeColor=#d6b656;" parent="OIUGpZVn9Aiv7QThtbN1-3" vertex="1">
          <mxGeometry x="22.5" y="30" width="70" height="30" as="geometry" />
        </mxCell>
        <mxCell id="OIUGpZVn9Aiv7QThtbN1-4" value="&lt;span style=&quot;&quot;&gt;SceneConfig&lt;/span&gt;" style="whiteSpace=wrap;html=1;fillColor=#d5e8d4;strokeColor=#82b366;" parent="1" vertex="1">
          <mxGeometry x="295" y="175" width="85" height="50" as="geometry" />
        </mxCell>
        <mxCell id="OIUGpZVn9Aiv7QThtbN1-6" value="" style="whiteSpace=wrap;html=1;" parent="1" vertex="1">
          <mxGeometry x="474.5" y="340" width="110" height="70" as="geometry" />
        </mxCell>
        <mxCell id="VOsG1k_2_-ozErprW9ac-1" value="VerifyModel" style="rounded=1;whiteSpace=wrap;html=1;fillColor=#f8cecc;strokeColor=#b85450;" parent="1" vertex="1">
          <mxGeometry x="490" y="366" width="75" height="35" as="geometry" />
        </mxCell>
        <mxCell id="OIUGpZVn9Aiv7QThtbN1-7" value="&lt;meta charset=&quot;utf-8&quot;&gt;&lt;span style=&quot;color: rgb(0, 0, 0); font-family: Helvetica; font-size: 12px; font-style: normal; font-variant-ligatures: normal; font-variant-caps: normal; font-weight: 400; letter-spacing: normal; orphans: 2; text-align: center; text-indent: 0px; text-transform: none; widows: 2; word-spacing: 0px; -webkit-text-stroke-width: 0px; background-color: rgb(248, 249, 250); text-decoration-thickness: initial; text-decoration-style: initial; text-decoration-color: initial; float: none; display: inline !important;&quot;&gt;components&lt;/span&gt;" style="text;whiteSpace=wrap;html=1;" parent="1" vertex="1">
          <mxGeometry x="475" y="340" width="75" height="20" as="geometry" />
        </mxCell>
        <mxCell id="OIUGpZVn9Aiv7QThtbN1-9" value="……" style="rounded=1;whiteSpace=wrap;html=1;fillColor=#f8cecc;strokeColor=#b85450;" parent="1" vertex="1">
          <mxGeometry x="589.5" y="170" width="75" height="35" as="geometry" />
        </mxCell>
        <mxCell id="OIUGpZVn9Aiv7QThtbN1-10" value="&lt;span style=&quot;&quot;&gt;casa&lt;/span&gt;" style="text;html=1;align=center;verticalAlign=middle;resizable=0;points=[];autosize=1;strokeColor=none;fillColor=none;" parent="1" vertex="1">
          <mxGeometry x="410" y="-30" width="50" height="30" as="geometry" />
        </mxCell>
        <mxCell id="OIUGpZVn9Aiv7QThtbN1-13" value="NumberPwdLogin" style="rounded=1;whiteSpace=wrap;html=1;fillColor=#e1d5e7;strokeColor=#9673a6;" parent="1" vertex="1">
          <mxGeometry x="221" y="53.5" width="109" height="35" as="geometry" />
        </mxCell>
        <mxCell id="OIUGpZVn9Aiv7QThtbN1-14" value="TransferLanding" style="rounded=1;whiteSpace=wrap;html=1;fillColor=#e1d5e7;strokeColor=#9673a6;" parent="1" vertex="1">
          <mxGeometry x="412" y="40" width="116" height="35" as="geometry" />
        </mxCell>
        <mxCell id="OIUGpZVn9Aiv7QThtbN1-15" value="TransferConfirm" style="rounded=1;whiteSpace=wrap;html=1;fillColor=#e1d5e7;strokeColor=#9673a6;" parent="1" vertex="1">
          <mxGeometry x="412" y="80" width="116" height="35" as="geometry" />
        </mxCell>
        <mxCell id="OIUGpZVn9Aiv7QThtbN1-17" value="HomePage" style="rounded=1;whiteSpace=wrap;html=1;fillColor=#e1d5e7;strokeColor=#9673a6;" parent="1" vertex="1">
          <mxGeometry x="412" width="81" height="35" as="geometry" />
        </mxCell>
        <mxCell id="OIUGpZVn9Aiv7QThtbN1-18" value="组件" style="rounded=1;whiteSpace=wrap;html=1;fillColor=#f8cecc;strokeColor=#b85450;" parent="1" vertex="1">
          <mxGeometry x="720" y="-53.5" width="75" height="35" as="geometry" />
        </mxCell>
        <mxCell id="OIUGpZVn9Aiv7QThtbN1-19" value="配置化文件" style="whiteSpace=wrap;html=1;fillColor=#d5e8d4;strokeColor=#82b366;" parent="1" vertex="1">
          <mxGeometry x="720" y="-7.5" width="75" height="37.5" as="geometry" />
        </mxCell>
        <mxCell id="OIUGpZVn9Aiv7QThtbN1-21" value="Native 工具类" style="whiteSpace=wrap;html=1;strokeWidth=3;fillColor=#ffe6cc;strokeColor=#d79b00;" parent="1" vertex="1">
          <mxGeometry x="716.25" y="46.5" width="82.5" height="45" as="geometry" />
        </mxCell>
        <mxCell id="OIUGpZVn9Aiv7QThtbN1-23" value="页面" style="rounded=1;whiteSpace=wrap;html=1;fillColor=#e1d5e7;strokeColor=#9673a6;" parent="1" vertex="1">
          <mxGeometry x="714.25" y="110" width="90.5" height="35" as="geometry" />
        </mxCell>
        <mxCell id="GaNckAKlCl8o1QAADYov-1" value="&lt;span style=&quot;&quot;&gt;未涉及&lt;/span&gt;" style="rounded=1;whiteSpace=wrap;html=1;absoluteArcSize=1;arcSize=14;strokeWidth=2;" vertex="1" parent="1">
          <mxGeometry x="714.25" y="160" width="85.75" height="35" as="geometry" />
        </mxCell>
      </root>
    </mxGraphModel>
  </diagram>
</mxfile>
